<?xml version="1.0" standalone="no"?>
<!DOCTYPE svg PUBLIC "-//W3C//DTD SVG 20010904//EN"
 "http://www.w3.org/TR/2001/REC-SVG-20010904/DTD/svg10.dtd">
<svg version="1.0" xmlns="http://www.w3.org/2000/svg"
 width="361.000000pt" height="361.000000pt" viewBox="0 0 361.000000 361.000000"
 preserveAspectRatio="xMidYMid meet">
<metadata>
Created by potrace 1.14, written by Peter Selinger 2001-2017
</metadata>
<g transform="translate(0.000000,361.000000) scale(0.100000,-0.100000)"
fill="#000000" stroke="none">
<path d="M2988 2699 c-7 -4 -16 -5 -20 -3 -5 3 -7 1 -6 -4 2 -6 0 -9 -3 -8 -3
0 -13 -5 -22 -12 -9 -8 -21 -11 -26 -7 -7 3 -8 0 -5 -9 4 -11 0 -16 -10 -16
-9 0 -16 -4 -16 -10 0 -5 -9 -10 -21 -10 -11 0 -18 -4 -15 -8 3 -5 -1 -9 -9
-9 -8 0 -11 5 -8 11 4 6 0 5 -9 -2 -13 -10 -17 -10 -21 0 -3 8 -6 6 -6 -6 -1
-16 -3 -17 -18 -5 -11 10 -14 10 -9 2 4 -8 2 -13 -4 -13 -6 0 -8 -5 -4 -12 5
-9 2 -8 -9 1 -15 12 -17 12 -11 -4 5 -13 4 -16 -4 -11 -7 4 -12 2 -12 -4 0 -6
-4 -8 -10 -5 -6 3 -7 -1 -4 -10 4 -8 1 -21 -5 -29 -6 -7 -7 -17 -3 -22 4 -5 3
-6 -2 -2 -5 5 -16 -2 -24 -13 -12 -17 -16 -18 -23 -8 -7 11 -9 11 -9 -1 0 -9
-3 -11 -8 -5 -4 6 -16 17 -27 25 -18 14 -19 13 -8 -1 11 -14 8 -16 -26 -15
-22 0 -37 4 -34 9 2 4 10 4 16 1 7 -4 9 -3 4 1 -9 11 -48 14 -42 4 3 -3 -6 -9
-20 -11 -13 -3 -22 -2 -20 3 3 4 1 10 -4 13 -5 3 -12 -2 -16 -12 -6 -16 -7
-16 -21 2 -8 12 -14 15 -14 7 0 -11 -3 -11 -17 0 -11 10 -14 10 -9 2 4 -8 2
-13 -8 -13 -8 0 -17 6 -19 13 -4 8 -6 7 -6 -4 -1 -11 -10 -15 -31 -13 -17 1
-30 -3 -30 -9 0 -8 -4 -7 -9 2 -6 10 -10 10 -16 1 -6 -9 -10 -9 -16 1 -7 11
-9 10 -9 -4 0 -14 -5 -17 -21 -12 -15 5 -19 4 -14 -5 6 -9 3 -9 -14 -1 -17 10
-22 9 -27 -4 -4 -9 -13 -14 -21 -11 -9 4 -11 2 -7 -6 5 -8 2 -9 -9 -5 -10 3
-17 3 -17 -1 0 -4 -16 -15 -35 -24 -19 -8 -32 -11 -29 -6 3 5 -3 4 -15 -4 -12
-7 -21 -17 -21 -22 0 -4 -9 -6 -21 -3 -17 5 -18 3 -7 -11 10 -12 10 -14 1 -8
-8 4 -13 2 -13 -4 0 -6 -5 -8 -10 -5 -14 9 -42 -14 -33 -28 4 -6 -2 -8 -15 -5
-12 4 -20 2 -16 -3 3 -5 0 -17 -5 -26 -6 -10 -11 -13 -11 -7 0 6 -7 11 -15 11
-11 0 -12 -4 -4 -14 7 -7 7 -13 2 -13 -5 0 -21 -15 -34 -34 -13 -18 -28 -35
-34 -35 -5 -1 -9 -9 -8 -17 0 -9 -5 -13 -13 -10 -9 3 -14 -2 -14 -14 0 -11 -5
-20 -11 -20 -5 0 -7 -4 -4 -10 3 -5 -1 -10 -9 -10 -9 0 -16 -5 -16 -11 0 -5 4
-7 10 -4 6 3 7 -1 4 -9 -3 -9 -10 -13 -15 -10 -8 5 -13 -9 -10 -28 0 -5 -3 -8
-9 -8 -5 0 -6 -8 -3 -17 5 -13 3 -15 -13 -9 -15 6 -16 5 -7 -5 10 -10 9 -15
-5 -26 -9 -8 -11 -12 -5 -8 9 4 11 1 7 -9 -3 -9 -11 -13 -16 -10 -6 4 -5 -3 1
-15 10 -17 9 -21 -3 -21 -8 0 -18 -4 -21 -10 -3 -6 1 -7 9 -4 9 3 16 4 16 1 0
-3 -7 -7 -15 -11 -10 -4 -20 5 -30 27 -9 18 -13 23 -10 13 5 -16 3 -17 -10 -6
-8 7 -12 16 -9 21 3 5 0 8 -8 7 -8 -2 -12 5 -11 17 1 11 0 14 -3 8 -8 -19 -25
-15 -22 5 2 9 -3 16 -10 14 -7 -1 -15 5 -18 13 -4 8 -15 15 -26 15 -15 0 -18
4 -13 18 5 14 4 15 -6 5 -16 -16 -30 -17 -26 -2 2 11 -69 40 -78 31 -3 -3 -5
2 -5 11 0 9 -5 19 -12 23 -7 5 -8 3 -3 -6 5 -8 4 -11 -2 -7 -6 4 -9 25 -7 47
2 28 -1 38 -8 34 -7 -4 -8 -3 -4 4 11 18 -21 74 -57 102 -18 13 -26 17 -18 7
19 -24 2 -21 -25 4 -16 15 -24 17 -29 8 -5 -7 -4 -10 3 -5 6 3 13 3 16 -2 2
-4 -4 -9 -15 -9 -10 -1 -19 3 -19 8 0 6 -6 7 -12 2 -21 -12 -38 -12 -38 0 0 7
-5 6 -10 -3 -9 -13 -11 -13 -21 0 -9 13 -10 12 -5 -2 3 -12 0 -18 -10 -18 -8
0 -13 -4 -10 -8 3 -5 -1 -9 -9 -9 -8 0 -12 5 -9 11 3 6 0 4 -8 -4 -7 -8 -22
-22 -32 -30 -18 -13 -19 -13 -11 0 6 12 5 13 -6 3 -16 -15 -33 -17 -24 -3 3 6
2 10 -4 10 -5 0 -13 -5 -17 -11 -4 -8 -12 -3 -21 12 -8 13 -12 17 -10 9 5 -16
-28 -20 -50 -7 -7 4 -16 -1 -22 -10 -7 -13 -10 -14 -11 -4 0 16 -15 5 -15 -11
0 -6 -7 -12 -17 -14 -9 -1 -24 -7 -35 -14 -17 -11 -17 -11 0 -6 12 4 17 2 15
-6 -3 -7 -10 -14 -16 -14 -23 -3 -24 -4 -11 -20 10 -13 10 -17 -2 -25 -12 -7
-12 -9 1 -9 13 0 13 -2 1 -9 -12 -8 -12 -13 -3 -24 12 -14 11 -67 -1 -57 -4 3
-14 -5 -23 -18 -9 -13 -22 -21 -30 -18 -8 3 -13 2 -13 -2 2 -17 -14 -51 -22
-46 -5 3 -9 -2 -9 -11 0 -9 -11 -27 -24 -40 -13 -13 -22 -26 -20 -28 3 -2 -2
-16 -9 -30 -8 -15 -17 -24 -20 -20 -4 3 -7 -4 -7 -16 0 -17 -4 -21 -16 -17
-10 4 -13 2 -7 -7 13 -20 12 -36 -2 -31 -7 3 -15 -2 -19 -11 -3 -9 -2 -13 4
-10 6 4 3 -9 -6 -29 -10 -19 -22 -32 -27 -29 -6 4 -8 -1 -4 -11 4 -10 1 -19
-8 -22 -7 -3 -12 -11 -9 -18 3 -7 -2 -19 -10 -26 -9 -7 -13 -17 -10 -22 4 -6
-3 -5 -14 1 -15 8 -23 8 -28 -1 -5 -7 -3 -8 7 -3 8 5 10 4 6 0 -10 -12 -39
-16 -32 -5 3 5 -10 7 -27 6 -18 -1 -39 2 -46 8 -7 5 -16 6 -19 2 -4 -4 -13 4
-21 16 -9 16 -12 17 -7 4 5 -16 3 -17 -10 -6 -12 10 -15 10 -15 -1 0 -8 -6 -5
-15 7 -9 11 -13 13 -10 4 4 -11 -3 -15 -27 -14 -19 1 -38 -6 -46 -15 -11 -14
-11 -14 -6 4 5 19 5 19 -10 1 -8 -10 -19 -15 -25 -12 -5 4 -13 1 -17 -5 -4 -7
-3 -9 4 -5 6 3 13 2 17 -4 6 -9 -8 -14 -28 -11 -5 1 -6 -3 -2 -9 3 -6 12 -8
18 -4 7 3 1 -4 -13 -16 -14 -12 -18 -18 -10 -14 13 7 13 5 1 -9 -11 -14 -11
-17 0 -17 10 0 10 -3 2 -11 -14 -14 -5 -42 10 -32 5 3 7 1 3 -5 -3 -6 3 -27
15 -46 11 -20 17 -36 13 -36 -5 0 2 -7 14 -16 13 -9 19 -20 15 -27 -5 -8 -2
-8 9 1 13 10 15 9 13 -12 -3 -19 1 -23 18 -18 11 3 18 1 15 -4 -7 -10 11 -27
32 -32 21 -5 31 -25 17 -35 -7 -5 -3 -6 10 -2 21 6 22 3 20 -39 -1 -25 -4 -46
-8 -46 -3 0 -6 -7 -6 -15 0 -8 4 -15 8 -15 5 0 6 -7 3 -15 -4 -8 -1 -15 5 -15
6 0 11 -10 11 -22 0 -19 2 -20 11 -8 9 12 10 11 6 -7 -3 -12 -2 -22 2 -21 28
3 51 -4 51 -17 0 -8 5 -15 11 -15 5 0 8 4 5 9 -4 5 4 7 16 3 16 -4 19 -2 13 9
-7 12 -5 12 6 1 12 -11 12 -14 -1 -22 -12 -7 -10 -9 7 -7 12 0 19 6 16 12 -4
5 4 1 16 -9 20 -18 21 -18 15 -2 -6 16 -5 17 16 6 12 -6 37 -10 55 -8 19 2 32
1 29 -3 -2 -4 0 -10 6 -14 5 -3 10 -1 10 4 0 6 5 11 10 11 6 0 10 -8 10 -17 1
-17 1 -17 11 0 9 15 12 16 31 3 15 -10 27 -12 39 -6 12 7 19 5 23 -6 5 -13 9
-14 21 -4 12 10 15 10 15 0 0 -10 3 -10 15 0 12 10 15 10 15 0 0 -9 4 -9 17 1
14 12 16 12 9 0 -6 -9 -5 -12 5 -9 8 3 22 -2 32 -10 14 -13 17 -13 12 -1 -4
11 4 14 34 14 30 0 37 -3 29 -13 -13 -15 4 -16 20 0 9 9 12 9 12 -1 0 -7 5 -9
10 -6 6 4 8 10 5 14 -2 5 7 6 20 3 15 -2 22 -9 18 -16 -4 -6 1 -5 10 3 12 9
17 10 17 2 0 -7 5 -9 10 -6 6 4 8 10 5 15 -3 5 7 5 23 0 16 -4 35 -4 43 1 9 5
21 2 33 -9 11 -9 16 -11 12 -4 -9 16 6 16 23 0 11 -11 12 -10 6 1 -6 11 -4 13
8 8 10 -3 17 -2 17 3 0 6 5 10 10 10 6 0 9 -3 9 -7 -3 -20 2 -27 10 -14 8 12
12 13 25 1 14 -11 16 -10 10 5 -6 15 -4 16 14 6 19 -10 22 -9 23 6 0 11 3 13
6 6 6 -15 39 -17 48 -3 3 6 12 10 18 10 8 0 8 -3 -1 -9 -10 -6 -7 -10 12 -13
15 -3 23 -1 19 5 -3 5 0 7 8 5 8 -3 23 -1 34 5 16 8 18 7 7 -4 -6 -7 -12 -18
-12 -23 0 -6 4 -5 9 3 5 7 22 14 39 16 16 1 36 6 43 10 8 5 5 -2 -6 -15 l-20
-24 24 17 c17 12 29 13 42 6 15 -8 17 -6 12 7 -5 14 -3 15 15 5 12 -6 23 -7
26 -2 7 10 31 9 42 -2 4 -4 13 -2 21 4 10 9 13 8 13 0 0 -7 5 -9 10 -6 6 4 7
12 3 18 -3 7 3 4 14 -6 16 -14 26 -15 45 -8 18 7 29 6 38 -2 10 -9 12 -8 7 4
-4 13 -1 15 14 12 10 -3 17 -9 14 -13 -3 -5 7 -7 21 -5 14 1 30 9 35 16 7 11
9 9 9 -6 1 -18 2 -18 11 3 7 19 29 23 29 6 0 -3 -5 -2 -12 2 -7 4 -8 3 -4 -5
6 -9 14 -8 33 4 14 10 23 13 19 7 -3 -5 3 -12 13 -15 13 -3 18 0 15 7 -5 14
24 15 45 1 10 -5 12 -4 7 3 -4 7 -2 12 3 12 6 0 11 -4 11 -8 0 -5 20 -8 44 -8
30 1 41 4 36 12 -10 11 40 11 59 -1 6 -3 11 2 11 12 0 10 4 14 8 8 11 -15 32
-17 32 -3 0 9 4 8 10 -2 9 -13 10 -13 10 0 0 13 1 13 10 0 5 -8 10 -10 10 -3
0 6 13 10 30 9 17 -1 30 2 30 7 0 5 7 4 15 -3 10 -8 15 -9 15 -2 0 6 7 9 15 6
9 -4 15 0 15 7 0 11 3 11 10 -1 8 -13 10 -13 10 -1 0 11 4 9 15 -5 15 -19 15
-19 8 1 -6 18 -5 19 12 5 15 -12 17 -12 10 -1 -6 11 -3 13 13 9 12 -4 22 -2
22 3 0 6 9 5 21 -2 17 -8 20 -8 14 1 -5 8 -3 11 6 8 8 -3 20 2 27 11 11 14 11
14 6 -2 -5 -13 -2 -16 10 -11 9 3 14 9 11 13 -2 4 10 5 27 3 20 -3 29 -1 24 6
-4 7 2 9 16 7 12 -3 25 0 29 6 5 8 12 8 28 0 18 -10 20 -9 14 6 -6 16 -5 17
12 3 11 -8 16 -10 11 -3 -5 9 1 12 23 9 17 -2 29 0 26 3 -2 4 21 19 51 33 30
15 52 23 49 18 -8 -14 24 -5 38 10 10 12 9 12 -5 1 -10 -7 -18 -9 -18 -4 0 8
66 48 81 48 4 0 14 7 21 15 11 12 11 12 -4 1 -12 -9 -18 -10 -18 -2 0 6 3 11
8 12 4 0 15 2 25 4 11 2 16 1 13 -2 -3 -3 2 -12 12 -20 9 -8 11 -12 5 -8 -7 3
-13 1 -13 -4 0 -6 9 -11 20 -11 11 0 19 -6 17 -13 -1 -6 4 -11 12 -9 9 2 11
-3 7 -13 -3 -9 -2 -13 3 -10 6 3 14 -3 20 -12 6 -11 11 -13 11 -5 0 10 3 10
14 0 8 -7 11 -17 8 -23 -3 -5 3 -3 13 5 17 14 18 13 11 -5 -4 -11 -4 -16 0
-12 4 4 14 1 23 -6 14 -10 14 -10 4 3 -10 13 -9 16 6 16 11 0 17 -6 14 -13 -4
-9 0 -11 11 -7 9 3 13 11 10 18 -3 6 2 2 10 -8 14 -18 21 -15 17 7 -1 4 8 3
20 -4 12 -6 19 -7 15 -1 -3 5 1 15 9 22 13 11 14 10 9 -6 -7 -19 -6 -19 8 0 9
12 20 16 29 12 8 -4 6 -1 -3 7 -18 14 -25 33 -10 24 10 -7 28 15 27 33 -1 8 1
20 4 25 3 6 6 15 6 20 1 6 7 9 14 7 7 -1 10 2 6 8 -3 5 1 13 9 16 9 3 13 10
10 15 -3 6 0 16 6 24 11 13 14 85 7 192 -1 30 2 55 8 57 5 2 2 5 -9 5 -13 1
-17 6 -13 21 3 13 1 18 -6 13 -6 -4 -8 0 -4 10 3 9 3 16 -1 15 -11 -4 -63 52
-58 61 3 4 -1 8 -9 8 -8 0 -12 -5 -9 -11 3 -6 -1 -3 -9 6 -8 10 -18 14 -23 10
-4 -4 -2 2 6 12 14 17 13 18 -5 13 -11 -4 -27 -2 -35 3 -13 9 -13 11 0 21 12
8 11 9 -7 4 -12 -3 -25 -1 -29 7 -12 18 -14 39 -4 33 5 -3 12 0 16 6 4 7 3 9
-4 5 -14 -8 -19 1 -23 44 -2 19 -8 38 -14 42 -6 5 -5 8 3 8 7 0 10 5 7 10 -4
6 -1 18 6 26 10 12 9 13 -4 9 -8 -4 -18 -1 -23 6 -5 8 -3 10 7 4 12 -8 12 -6
0 8 -11 14 -11 17 0 17 10 1 8 4 -4 11 -13 8 -15 14 -7 29 9 16 8 18 -6 13
-11 -4 -15 -3 -10 5 3 6 1 14 -5 17 -5 4 -8 13 -5 21 3 8 1 14 -5 14 -6 0 -8
9 -4 21 5 16 4 20 -6 15 -8 -4 -6 -1 4 7 9 8 17 20 17 26 0 7 4 10 9 6 6 -3 8
4 6 16 -3 16 -1 19 13 14 14 -5 15 -4 5 6 -7 7 -13 16 -13 21 0 4 6 5 13 3 7
-3 13 5 14 21 0 15 6 30 13 34 9 6 9 9 -1 12 -11 4 -10 9 3 25 14 15 15 22 5
33 -10 10 -8 12 7 6 16 -5 17 -4 6 9 -9 11 -10 19 -1 28 8 10 7 17 -1 25 -9 9
-9 12 3 12 12 0 12 2 -1 10 -11 7 -11 10 -2 10 7 0 10 5 7 10 -4 6 -10 8 -14
5 -5 -2 -6 7 -3 22 4 20 2 24 -9 18 -12 -8 -12 -6 0 8 9 12 10 17 2 17 -7 0
-9 5 -6 10 3 6 -1 10 -9 10 -9 0 -16 4 -16 9 0 5 -13 14 -30 21 -19 8 -30 20
-30 32 0 10 -4 16 -10 13 -6 -4 -10 5 -10 20 0 15 -4 24 -10 20 -9 -5 -15 24
-11 48 1 5 -2 6 -6 4 -5 -3 -17 2 -28 10 -16 13 -17 15 -2 10 9 -4 17 -2 17 3
0 6 -12 10 -26 10 -15 0 -33 8 -40 18 -9 11 -13 13 -14 4 0 -8 -5 -10 -12 -6
-16 10 -56 11 -70 3z m-1203 -1779 c3 -5 1 -10 -4 -10 -6 0 -11 5 -11 10 0 6
2 10 4 10 3 0 8 -4 11 -10z m120 0 c3 -5 1 -10 -4 -10 -6 0 -11 5 -11 10 0 6
2 10 4 10 3 0 8 -4 11 -10z"/>
<path d="M1155 2300 c3 -5 8 -10 11 -10 2 0 4 5 4 10 0 6 -5 10 -11 10 -5 0
-7 -4 -4 -10z"/>
<path d="M800 2226 c0 -2 7 -7 16 -10 8 -3 12 -2 9 4 -6 10 -25 14 -25 6z"/>
<path d="M2935 1069 c-4 -6 -5 -12 -2 -15 2 -3 7 2 10 11 7 17 1 20 -8 4z"/>
</g>
</svg>
